<?xml version="1.0" encoding="UTF-8" standalone="no"?>
<!-- Created with Inkscape (http://www.inkscape.org/) -->

<svg
   width="16"
   height="16"
   viewBox="0 0 16 16"
   version="1.1"
   id="svg1"
   xml:space="preserve"
   xmlns="http://www.w3.org/2000/svg"
   xmlns:svg="http://www.w3.org/2000/svg"><defs
     id="defs1" /><g
     id="g16"
     style="display:inline"><path
       id="path11"
       style="fill:#e0e0e0;fill-opacity:1;stroke-width:0.999999"
       d="m 3.0000003,1.0000002 c -1.1045694,0 -2.0000001,0.8954307 -2.0000001,2.0000001 v 1 H 15.000001 v -1 c 0,-1.1045698 -0.895431,-2.00000038 -2,-2.0000001 z m 9.0000007,1.0000001 h 1 v 1 h -1 z M 1.0000002,5.0000004 v 8.0000006 c -2.8e-7,1.104569 0.8954303,2 2.0000001,2 H 13.000001 c 1.10457,1e-6 2.000001,-0.89543 2,-2 V 5.0000004 Z m 3.4726566,1 H 11.527344 L 10.884766,13.19922 7.9941411,14.000001 5.1152348,13.203126 Z" /><path
       id="path14"
       d="m 5.7832037,7.4726565 0.2421884,2.6679685 3.060547,0.002 -0.1035137,1.146484 -0.9824219,0.263671 h -0.00389 l -0.9843913,-0.263671 -0.0625,-0.705078 h -0.886722 l 0.1250004,1.384766 1.8124999,0.505859 v -0.0059 L 9.8046882,11.968751 10.046875,9.2597664 H 6.8339847 L 6.7519538,8.3554693 h 3.3750002 l 0.08203,-0.8828128 z"
       style="fill:#e0e0e0;fill-opacity:1;stroke-width:0.0194443" /></g></svg>
