<?xml version="1.0" encoding="UTF-8" standalone="no"?>
<!-- Created with Inkscape (http://www.inkscape.org/) -->

<svg
   width="128"
   height="128"
   viewBox="0 0 16 16"
   version="1.1"
   id="svg1"
   xml:space="preserve"
   xmlns="http://www.w3.org/2000/svg"
   xmlns:svg="http://www.w3.org/2000/svg"><defs
     id="defs1" /><g
     id="layer1"
     style="display:inline"><path
       fill="#e0e0e0"
       d="M 2.8571428,0.99999996 A 1.8571429,1.8571429 0 0 0 0.99999996,2.8571428 V 3.7857143 H 14 V 2.8571428 A 1.8571429,1.8571429 0 0 0 12.142857,0.99999996 Z M 11.214286,1.9285713 h 0.928571 V 2.8571428 H 11.214286 Z M 0.99999996,4.7142854 V 12.142857 A 1.8571429,1.8571429 0 0 0 2.8571428,14 H 12.142857 A 1.8571429,1.8571429 0 0 0 14,12.142857 V 4.7142854 Z m 2.78571434,1.857143 h 2.7857141 c 0.9285715,0 0.9285715,1.857143 1.857143,1.857143 H 11.214286 V 12.142857 H 3.7857143 Z"
       id="path1"
       style="stroke-width:0.92857" /><g
       id="g2"
       transform="matrix(0.01215213,0,0,0.01215213,9.6846594,8.7781105)"><path
         fill="#e44d26"
         d="M 107.6,471 74.6,100.6 H 437.4 L 404.4,470.8 255.7,512"
         id="path2" /><path
         fill="#f16529"
         d="M 256,480.5 V 131 H 404.3 L 376,447"
         id="path3" /><path
         fill="#ebebeb"
         d="m 142,176.3 h 114 v 45.4 h -64.2 l 4.2,46.5 h 60 v 45.3 H 154.4 m 2,22.8 H 202 l 3.2,36.3 50.8,13.6 v 47.4 l -93.2,-26"
         id="path4" /><path
         fill="#ffffff"
         d="M 369.6,176.3 H 255.8 v 45.4 h 109.6 m -4.1,46.5 H 255.8 v 45.4 h 56 l -5.3,59 -50.7,13.6 v 47.2 l 93,-25.8"
         id="path5" /></g></g></svg>
